Coordinates
version=1
nRows=54
nColumns=12
inDegrees=yes

Units are S.I. units (second, meters, Newtons, ...)
Angles are in degrees

endheader
time	SC_y	SC_z	SC_x	AC_y	AC_z	AC_x	GH_y	GH_z	GH_yy	EL_x	PS_y
       0.0               -42.6          1.037          36.21          46.36         -17.99          5.099         -20.87          13.63         -11.45          58.27          69.19
   0.03375               -42.6          1.042          36.21          46.37         -17.99            5.1         -20.86          13.63         -11.47          58.27          69.18
    0.0675               -42.6          1.046           36.2          46.37         -17.99            5.1         -20.85          13.62         -11.49          58.27          69.18
    0.1012               -42.6          1.051           36.2          46.37         -17.99          5.101         -20.84          13.62         -11.51          58.27          69.17
     0.135              -42.61          1.056          36.19          46.37         -17.99          5.101         -20.83          13.62         -11.53          58.27          69.16
    0.1687              -42.61          1.061          36.19          46.37         -17.98          5.102         -20.82          13.61         -11.55          58.27          69.15
    0.2025              -42.61          1.067          36.18          46.38         -17.98          5.103         -20.81          13.61         -11.57          58.26          69.14
    0.2362              -42.61          1.073          36.18          46.38         -17.98          5.103          -20.8           13.6          -11.6          58.26          69.14
      0.27              -42.62           1.08          36.17          46.38         -17.98          5.104         -20.79           13.6         -11.63          58.26          69.13
    0.3037              -42.62          1.087          36.16          46.39         -17.97          5.105         -20.77          13.59         -11.65          58.25          69.11
    0.3375              -42.62          1.094          36.15          46.39         -17.97          5.105         -20.76          13.59         -11.69          58.25           69.1
    0.3712              -42.63          1.103          36.15          46.39         -17.97          5.106         -20.74          13.58         -11.72          58.25          69.09
     0.405              -42.63          1.111          36.14           46.4         -17.97          5.107         -20.73          13.57         -11.76          58.25          69.08
    0.4387              -42.63          1.121          36.13           46.4         -17.96          5.108         -20.71          13.57          -11.8          58.24          69.06
    0.4725              -42.64          1.131          36.12          46.41         -17.96          5.109         -20.69          13.56         -11.84          58.24          69.05
    0.5062              -42.64          1.142           36.1          46.41         -17.96           5.11         -20.67          13.55         -11.88          58.23          69.03
      0.54              -42.65          1.154          36.09          46.42         -17.95          5.111         -20.64          13.54         -11.93          58.23          69.01
    0.5737              -42.65          1.168          36.08          46.42         -17.95          5.113         -20.62          13.53         -11.99          58.22          68.99
    0.6075              -42.66          1.182          36.06          46.43         -17.94          5.114         -20.59          13.52         -12.05          58.22          68.97
    0.6412              -42.66          1.198          36.05          46.44         -17.94          5.116         -20.56          13.51         -12.11          58.21          68.94
     0.675              -42.67          1.215          36.03          46.45         -17.93          5.118         -20.52           13.5         -12.18           58.2          68.92
    0.7087              -42.68          1.234          36.01          46.46         -17.92           5.12         -20.49          13.48         -12.26           58.2          68.89
    0.7425              -42.69          1.255          35.99          46.47         -17.91          5.122         -20.45          13.47         -12.35          58.19          68.85
    0.7762               -42.7          1.279          35.96          46.48         -17.91          5.124          -20.4          13.45         -12.45          58.18          68.82
      0.81              -42.71          1.304          35.94          46.49          -17.9          5.127         -20.35          13.43         -12.55          58.17          68.78
    0.8437              -42.72          1.333          35.91           46.5         -17.89           5.13         -20.29          13.41         -12.67          58.16          68.73
    0.8775              -42.73          1.366          35.87          46.52         -17.88          5.133         -20.23          13.38         -12.81          58.14          68.68
    0.9112              -42.75          1.402          35.84          46.54         -17.86          5.137         -20.16          13.35         -12.96          58.13          68.62
    0.9449              -42.76          1.444          35.79          46.56         -17.85          5.141         -20.08          13.32         -13.13          58.11          68.56
    0.9787              -42.78           1.49          35.74          46.58         -17.83          5.146         -19.99          13.29         -13.32          58.09          68.49
     1.012               -42.8          1.544          35.69           46.6         -17.81          5.151         -19.89          13.25         -13.54          58.07          68.41
     1.046              -42.83          1.605          35.63          46.63         -17.79          5.157         -19.77           13.2         -13.79          58.05          68.31
      1.08              -42.85          1.676          35.55          46.67         -17.77          5.165         -19.63          13.14         -14.09          58.02           68.2
     1.114              -42.89          1.758          35.47          46.71         -17.74          5.173         -19.47          13.08         -14.43          57.99          68.07
     1.147              -42.93          1.854          35.37          46.75          -17.7          5.183         -19.28          13.01         -14.82          57.95          67.92
     1.181              -42.97          1.968          35.25           46.8         -17.66          5.194         -19.06          12.92         -15.29           57.9          67.75
     1.215              -43.03          2.102          35.11          46.87         -17.61          5.208          -18.8          12.82         -15.85          57.85          67.54
     1.249              -43.09          2.264          34.95          46.95         -17.56          5.225         -18.49           12.7         -16.52          57.78          67.29
     1.282              -43.17          2.459          34.74          47.04         -17.49          5.245         -18.11          12.55         -17.32           57.7          66.98
     1.316              -43.26          2.698           34.5          47.15          -17.4          5.269         -17.65          12.37         -18.31          57.61          66.61
      1.35              -43.38          2.993          34.19          47.29          -17.3          5.299         -17.07          12.14         -19.53          57.49          66.16
     1.384              -43.53           3.36          33.81          47.47         -17.17          5.336         -16.36          11.86         -21.04          57.34          65.59
     1.417              -43.72          3.823          33.33          47.69          -17.0          5.384         -15.46          11.51         -22.95          57.15          64.87
     1.451              -43.95          4.412          32.73          47.97         -16.79          5.444         -14.32          11.06         -25.39          56.92          63.95
     1.485              -44.25          5.165          31.95          48.32         -16.52          5.521         -12.86          10.49          -28.5          56.62          62.78
     1.519              -44.64          6.132          30.95          48.78         -16.18          5.619         -10.98          9.752         -32.49          56.23          61.28
     1.552              -45.14          7.367          29.67          49.37         -15.74          5.745         -8.584          8.812         -37.59          55.73          59.37
     1.586              -45.76          8.919          28.07           50.1         -15.19          5.904         -5.571           7.63          -44.0          55.11          56.96
      1.62              -46.52          10.81          26.11           51.0         -14.51          6.097         -1.898           6.19         -51.81          54.35          54.02
     1.654              -47.39           13.0          23.85          52.04         -13.73           6.32          2.358           4.52         -60.86          53.46          50.62
     1.687              -48.35          15.38           21.4          53.17         -12.89          6.563          6.967          2.712         -70.67          52.51          46.93
     1.721               -49.3          17.75          18.94           54.3         -12.04          6.805          11.58         0.9041         -80.48          51.55          43.25
     1.755              -50.18          19.95          16.68          55.34         -11.26          7.029          15.83        -0.7656         -89.53          50.67          39.84
     1.789              -50.93          21.84          14.72          56.24         -10.59          7.222          19.51         -2.206         -97.34          49.91          36.91
